<svg width="800" height="778" viewBox="0 0 800 778" fill="none" xmlns="http://www.w3.org/2000/svg">
<g filter="url(#filter0_d_1_3)">
<path d="M630.132 280.553C619.233 280.553 610.396 289.39 610.396 300.289V660.688C610.396 698.773 579.404 729.764 541.319 729.764H108.551C70.4657 729.764 39.4734 698.771 39.4734 660.688V227.916C39.4734 189.831 70.4657 158.841 108.551 158.841H541.319C552.218 158.841 561.055 150.004 561.055 139.105C561.055 128.206 552.218 119.369 541.319 119.369H108.551C48.6948 119.369 0 168.062 0 227.916V660.688C0 720.541 48.6948 769.236 108.551 769.236H541.319C601.173 769.236 649.868 720.541 649.868 660.688V300.291C649.868 289.392 641.032 280.553 630.132 280.553Z" fill="#838383"/>
<path d="M782.123 18.606C758.33 -5.18699 719.619 -5.17729 695.846 18.606L357.787 356.675C357.334 357.127 352.236 362.427 350.916 365.397L304.101 470.572C300.776 478.038 302.394 486.78 308.176 492.555C311.953 496.331 317.003 498.335 322.139 498.335C324.847 498.335 327.574 497.776 330.157 496.627L435.334 449.812C438.292 448.494 443.6 443.395 444.056 442.942L782.123 104.885C793.649 93.3583 800 78.0367 800 61.7405C800 45.4458 793.649 30.121 782.123 18.606ZM754.215 76.9667L416.146 415.035C416.089 415.094 416.057 415.161 416.002 415.208L361.063 439.666L385.521 384.728C385.569 384.67 385.635 384.64 385.694 384.583L723.754 46.5159C731.897 38.371 746.091 38.3807 754.216 46.5239C758.286 50.581 760.528 55.9878 760.528 61.7405C760.528 67.4931 758.283 72.8983 754.215 76.9667Z" fill="#838383"/>
</g>
<defs>
<filter id="filter0_d_1_3" x="-4" y="0.764893" width="808" height="776.471" filterUnits="userSpaceOnUse" color-interpolation-filters="sRGB">
<feFlood flood-opacity="0" result="BackgroundImageFix"/>
<feColorMatrix in="SourceAlpha" type="matrix" values="0 0 0 0 0 0 0 0 0 0 0 0 0 0 0 0 0 0 127 0" result="hardAlpha"/>
<feOffset dy="4"/>
<feGaussianBlur stdDeviation="2"/>
<feComposite in2="hardAlpha" operator="out"/>
<feColorMatrix type="matrix" values="0 0 0 0 0 0 0 0 0 0 0 0 0 0 0 0 0 0 0.25 0"/>
<feBlend mode="normal" in2="BackgroundImageFix" result="effect1_dropShadow_1_3"/>
<feBlend mode="normal" in="SourceGraphic" in2="effect1_dropShadow_1_3" result="shape"/>
</filter>
</defs>
</svg>
