<svg width="16" height="16" viewBox="0 0 786 816" fill="none" xmlns="http://www.w3.org/2000/svg">
    <rect width="786" height="816" fill="white"/>
    <g filter="url(#filter0_d_0_1)">
        <g clip-path="url(#clip0_0_1)">
            <g filter="url(#filter1_d_0_1)">
                <path d="M614.588 291.372C604.093 291.372 595.585 300.549 595.585 311.869V686.165C595.585 725.718 565.743 757.904 529.072 757.904H112.372C75.7009 757.904 45.8593 725.716 45.8593 686.165V236.705C45.8593 197.151 75.7009 164.966 112.372 164.966H529.072C539.567 164.966 548.075 155.788 548.075 144.469C548.075 133.149 539.567 123.972 529.072 123.972H112.372C54.7383 123.972 7.8515 174.543 7.8515 236.705V686.165C7.8515 748.325 54.7383 798.898 112.372 798.898H529.072C586.704 798.898 633.591 748.325 633.591 686.165V311.87C633.591 300.551 625.082 291.372 614.588 291.372Z"
                      fill="#838383"/>
                <path d="M760.935 19.3234C738.026 -5.38701 700.752 -5.37694 677.862 19.3234L352.354 370.428C351.918 370.898 347.01 376.403 345.738 379.486L300.661 488.718C297.46 496.472 299.018 505.55 304.585 511.548C308.222 515.469 313.084 517.551 318.03 517.551C320.637 517.551 323.263 516.97 325.75 515.777L427.022 467.157C429.87 465.788 434.981 460.492 435.42 460.022L760.935 108.929C772.034 96.9582 778.149 81.0458 778.149 64.1212C778.149 47.1982 772.034 31.2825 760.935 19.3234ZM734.063 79.9345L408.546 431.039C408.492 431.1 408.461 431.17 408.408 431.219L355.509 456.619L379.058 399.564C379.105 399.503 379.169 399.471 379.225 399.413L704.734 48.3095C712.575 39.8505 726.241 39.8606 734.065 48.3179C737.984 52.5314 740.142 58.1467 740.142 64.1212C740.142 70.0957 737.98 75.7092 734.063 79.9345Z"
                      fill="#838383"/>
            </g>
        </g>
        <rect x="4.5" y="0.5" width="777" height="807" stroke="black" shape-rendering="crispEdges"/>
    </g>
    <defs>
        <filter id="filter0_d_0_1" x="0" y="0" width="786" height="816" filterUnits="userSpaceOnUse"
                color-interpolation-filters="sRGB">
            <feFlood flood-opacity="0" result="BackgroundImageFix"/>
            <feColorMatrix in="SourceAlpha" type="matrix" values="0 0 0 0 0 0 0 0 0 0 0 0 0 0 0 0 0 0 127 0"
                           result="hardAlpha"/>
            <feOffset dy="4"/>
            <feGaussianBlur stdDeviation="2"/>
            <feComposite in2="hardAlpha" operator="out"/>
            <feColorMatrix type="matrix" values="0 0 0 0 0 0 0 0 0 0 0 0 0 0 0 0 0 0 0.25 0"/>
            <feBlend mode="normal" in2="BackgroundImageFix" result="effect1_dropShadow_0_1"/>
            <feBlend mode="normal" in="SourceGraphic" in2="effect1_dropShadow_0_1" result="shape"/>
        </filter>
        <filter id="filter1_d_0_1" x="3.8515" y="0.794373" width="778.297" height="806.103" filterUnits="userSpaceOnUse"
                color-interpolation-filters="sRGB">
            <feFlood flood-opacity="0" result="BackgroundImageFix"/>
            <feColorMatrix in="SourceAlpha" type="matrix" values="0 0 0 0 0 0 0 0 0 0 0 0 0 0 0 0 0 0 127 0"
                           result="hardAlpha"/>
            <feOffset dy="4"/>
            <feGaussianBlur stdDeviation="2"/>
            <feComposite in2="hardAlpha" operator="out"/>
            <feColorMatrix type="matrix" values="0 0 0 0 0 0 0 0 0 0 0 0 0 0 0 0 0 0 0.25 0"/>
            <feBlend mode="normal" in2="BackgroundImageFix" result="effect1_dropShadow_0_1"/>
            <feBlend mode="normal" in="SourceGraphic" in2="effect1_dropShadow_0_1" result="shape"/>
        </filter>
        <clipPath id="clip0_0_1">
            <rect x="4" width="778" height="808" fill="white"/>
        </clipPath>
    </defs>
</svg>
