<svg width="28" height="28" viewBox="0 0 28 28" fill="none" xmlns="http://www.w3.org/2000/svg">
<path d="M8.99878 21V22C8.99878 22.7956 9.31485 23.5587 9.87746 24.1213C10.4401 24.6839 11.2031 25 11.9988 25C12.7944 25 13.5575 24.6839 14.1201 24.1213C14.6827 23.5587 14.9988 22.7956 14.9988 22V21M9.99878 9C9.99878 8.46957 10.2095 7.96086 10.5846 7.58579C10.9596 7.21071 11.4683 7 11.9988 7C12.5292 7 13.0379 7.21071 13.413 7.58579C13.7881 7.96086 13.9988 8.46957 13.9988 9C15.1472 9.54303 16.1262 10.3883 16.8308 11.4453C17.5355 12.5023 17.9392 13.7311 17.9988 15V18C18.074 18.6217 18.2942 19.2171 18.6416 19.7381C18.989 20.2592 19.4538 20.6914 19.9988 21H3.99878C4.54372 20.6914 5.00859 20.2592 5.35597 19.7381C5.70334 19.2171 5.92352 18.6217 5.99878 18V15C6.05834 13.7311 6.46208 12.5023 7.16673 11.4453C7.87138 10.3883 8.85037 9.54303 9.99878 9Z" stroke="#5F6980" stroke-width="1.38462" stroke-linecap="round" stroke-linejoin="round"/>
<rect x="20.7148" y="0.286133" width="6.85714" height="6.85714" rx="3.42857" fill="#E25563"/>
</svg>
