<svg width="64" height="64" fill="none" xmlns="http://www.w3.org/2000/svg"><g filter="url(#filter0_d_1_414)"><rect x="10" y="9" width="44" height="44" rx="9.429" fill="#fff"/><g clip-path="url(#clip0_1_414)"><path d="M44.365 23.627l-11.923-4.248-12.244 4.172 1.982 15.775 10.262 5.683 10.101-5.607 1.822-15.775z" fill="#E23237"/><path d="M20.198 23.551l12.244-4.172v25.63L22.18 39.336 20.198 23.55z" fill="#B52E31"/><path d="M32.423 22.371l7.43 16.53-2.776-.047-1.491-3.729H28.92l-1.633 3.776-2.653.048 7.788-16.578zm-.019 5.296l-2.51 5.25h4.72l-2.21-5.25z" fill="#fff"/></g><rect x="10" y="9" width="44" height="44" rx="9.429" stroke="#F2F4F7"/></g><defs><clipPath id="clip0_1_414"><path fill="#fff" transform="matrix(-1 0 0 1 44.375 19.313)" d="M0 0h24.262v25.778H0z"/></clipPath><filter id="filter0_d_1_414" x="0" y="0" width="64" height="64" filterUnits="userSpaceOnUse" color-interpolation-filters="sRGB"><feFlood flood-opacity="0" result="BackgroundImageFix"/><feColorMatrix in="SourceAlpha" values="0 0 0 0 0 0 0 0 0 0 0 0 0 0 0 0 0 0 127 0" result="hardAlpha"/><feOffset dy="1"/><feGaussianBlur stdDeviation="5"/><feColorMatrix values="0 0 0 0 0 0 0 0 0 0 0 0 0 0 0 0 0 0 0.06 0"/><feBlend in2="BackgroundImageFix" result="effect1_dropShadow_1_414"/><feBlend in="SourceGraphic" in2="effect1_dropShadow_1_414" result="shape"/></filter></defs></svg>