<svg width="20" height="20" fill="none" xmlns="http://www.w3.org/2000/svg"><path fill-rule="evenodd" clip-rule="evenodd" d="M4.185 4.124c0-.115.093-.209.208-.209h3.334c.115 0 .208.094.208.209v3.333a.208.208 0 01-.208.208H4.393a.208.208 0 01-.208-.208V4.124zm.208-1.459c-.805 0-1.458.653-1.458 1.459v3.333c0 .805.653 1.458 1.458 1.458h3.334c.805 0 1.458-.653 1.458-1.458V4.124c0-.806-.653-1.459-1.458-1.459H4.393zm8.125 1.459c0-.115.093-.209.209-.209h3.333c.115 0 .208.094.208.209v3.333a.208.208 0 01-.208.208h-3.333a.208.208 0 01-.209-.208V4.124zm.209-1.459c-.806 0-1.459.653-1.459 1.459v3.333c0 .805.653 1.458 1.459 1.458h3.333c.805 0 1.458-.653 1.458-1.458V4.124c0-.806-.653-1.459-1.458-1.459h-3.333zM4.393 12.25a.208.208 0 00-.208.208v3.333c0 .115.093.209.208.209h3.334a.208.208 0 00.208-.209v-3.333a.208.208 0 00-.208-.208H4.393zm-1.458.208c0-.805.653-1.458 1.458-1.458h3.334c.805 0 1.458.653 1.458 1.458v3.333c0 .806-.653 1.459-1.458 1.459H4.393a1.458 1.458 0 01-1.458-1.459v-3.333zm9.583 0c0-.115.093-.208.209-.208h3.333c.115 0 .208.093.208.208v3.333a.208.208 0 01-.208.209h-3.333a.208.208 0 01-.209-.209v-3.333zM12.727 11c-.806 0-1.459.653-1.459 1.458v3.333c0 .806.653 1.459 1.459 1.459h3.333c.805 0 1.458-.653 1.458-1.459v-3.333c0-.805-.653-1.458-1.458-1.458h-3.333z" fill="#5F6980"/></svg>