<svg width="1144" height="288" fill="none" xmlns="http://www.w3.org/2000/svg"><path d="M24.699 14.21v-.87l3.835-6.067h.63v1.346h-.425l-2.898 4.585v.069h5.165v.937h-6.307zM28.807 16V7.273h1.006V16h-1.006zm6.642.12c-.642 0-1.189-.175-1.64-.525-.452-.352-.797-.862-1.036-1.53-.239-.67-.358-1.48-.358-2.429 0-.943.12-1.748.358-2.416.242-.67.588-1.182 1.04-1.534.454-.355 1-.533 1.636-.533.637 0 1.18.178 1.632.533.455.352.801.864 1.04 1.534.242.668.362 1.473.362 2.416 0 .95-.119 1.759-.358 2.43-.238.667-.584 1.177-1.035 1.53-.452.349-.999.523-1.64.523zm0-.938c.637 0 1.13-.307 1.483-.92.352-.614.529-1.49.529-2.626 0-.755-.081-1.399-.243-1.93-.16-.531-.39-.936-.69-1.215a1.524 1.524 0 00-1.079-.417c-.63 0-1.123.31-1.478.933-.356.62-.533 1.496-.533 2.63 0 .755.08 1.397.238 1.925.16.529.388.93.687 1.207.3.275.663.413 1.086.413zm7.5.937c-.642 0-1.189-.174-1.64-.524-.452-.352-.797-.862-1.036-1.53-.239-.67-.358-1.48-.358-2.429 0-.943.12-1.748.358-2.416.242-.67.588-1.182 1.04-1.534.454-.355 1-.533 1.636-.533.637 0 1.18.178 1.632.533.455.352.801.864 1.04 1.534.242.668.362 1.473.362 2.416 0 .95-.119 1.759-.358 2.43-.238.667-.584 1.177-1.035 1.53-.452.349-.999.523-1.64.523zm0-.937c.637 0 1.13-.307 1.483-.92.352-.614.529-1.49.529-2.626 0-.755-.081-1.399-.243-1.93-.16-.531-.39-.936-.69-1.215a1.524 1.524 0 00-1.079-.417c-.63 0-1.123.31-1.478.933-.356.62-.533 1.496-.533 2.63 0 .755.08 1.397.238 1.925.16.529.388.93.687 1.207.3.275.663.413 1.086.413zM27.852 76.12c-.562 0-1.064-.097-1.504-.29a2.575 2.575 0 01-1.044-.806 2.164 2.164 0 01-.418-1.206h1.074c.023.281.12.524.29.729.17.202.393.358.669.469.276.11.581.166.916.166.375 0 .708-.066.997-.196.29-.13.517-.313.682-.546.165-.233.247-.502.247-.81 0-.32-.08-.603-.238-.847a1.58 1.58 0 00-.7-.58c-.306-.14-.681-.209-1.124-.209H27v-.937h.699c.346 0 .65-.063.912-.188.264-.125.47-.3.618-.528a1.42 1.42 0 00.226-.801c0-.296-.066-.553-.196-.772a1.34 1.34 0 00-.555-.51 1.792 1.792 0 00-.835-.184 2.2 2.2 0 00-.852.166c-.264.108-.48.266-.648.473a1.232 1.232 0 00-.272.742h-1.023c.017-.458.155-.858.413-1.202a2.602 2.602 0 011.014-.81c.42-.193.883-.29 1.385-.29.54 0 1.003.11 1.39.328.386.216.683.502.89.857.208.355.311.739.311 1.15 0 .492-.129.911-.387 1.258a1.965 1.965 0 01-1.044.72v.068c.55.091.981.325 1.29.703.31.375.465.84.465 1.394 0 .474-.13.9-.388 1.278a2.63 2.63 0 01-1.048.886c-.443.216-.947.324-1.513.324zm7.539 0c-.642 0-1.19-.175-1.641-.525-.452-.352-.797-.862-1.035-1.53-.24-.67-.359-1.48-.359-2.429 0-.943.12-1.748.358-2.416.242-.67.589-1.182 1.04-1.534.455-.355 1-.533 1.637-.533.636 0 1.18.178 1.632.533.454.352.8.864 1.04 1.534.241.668.362 1.473.362 2.416 0 .95-.12 1.759-.358 2.43-.239.667-.584 1.177-1.036 1.53-.451.349-.998.523-1.64.523zm0-.938c.636 0 1.13-.307 1.483-.92.352-.614.528-1.49.528-2.626 0-.755-.081-1.399-.243-1.93-.159-.531-.39-.936-.69-1.215a1.524 1.524 0 00-1.078-.417c-.631 0-1.124.31-1.48.933-.354.62-.532 1.496-.532 2.63 0 .755.08 1.397.239 1.925.159.529.388.93.686 1.207.301.275.663.413 1.087.413zm7.5.937c-.642 0-1.19-.174-1.641-.524-.452-.352-.797-.862-1.035-1.53-.24-.67-.359-1.48-.359-2.429 0-.943.12-1.748.358-2.416.242-.67.589-1.182 1.04-1.534.455-.355 1-.533 1.637-.533.636 0 1.18.178 1.632.533.454.352.8.864 1.04 1.534.241.668.362 1.473.362 2.416 0 .95-.12 1.759-.358 2.43-.239.667-.584 1.177-1.036 1.53-.451.349-.998.523-1.64.523zm0-.937c.636 0 1.13-.307 1.483-.92.352-.614.528-1.49.528-2.626 0-.755-.081-1.399-.243-1.93-.159-.531-.39-.936-.69-1.215a1.524 1.524 0 00-1.078-.417c-.631 0-1.124.31-1.48.933-.354.62-.532 1.496-.532 2.63 0 .755.08 1.397.239 1.925.159.529.388.93.686 1.207.301.275.663.413 1.087.413zM24.903 136v-.767l2.881-3.153c.338-.37.617-.691.835-.964a3.51 3.51 0 00.486-.775c.108-.244.162-.5.162-.767a1.42 1.42 0 00-.221-.797 1.44 1.44 0 00-.597-.52 1.937 1.937 0 00-.852-.183c-.336 0-.628.069-.878.209a1.435 1.435 0 00-.576.575 1.8 1.8 0 00-.2.869h-1.006c0-.511.118-.96.354-1.346.236-.387.557-.688.963-.904.41-.216.868-.324 1.377-.324.511 0 .964.108 1.36.324.394.216.704.507.928.874.224.366.337.774.337 1.223 0 .321-.059.635-.175.942-.114.304-.313.643-.597 1.018-.28.372-.672.827-1.172 1.364l-1.96 2.096v.068h4.057V136h-5.506zm10.113.119c-.642 0-1.19-.174-1.641-.524-.452-.352-.797-.862-1.035-1.53-.24-.67-.359-1.48-.359-2.429 0-.943.12-1.748.358-2.416.242-.67.589-1.182 1.04-1.534.455-.355 1-.533 1.637-.533.636 0 1.18.178 1.632.533.454.352.8.864 1.04 1.534.241.668.362 1.473.362 2.416 0 .949-.12 1.759-.358 2.429-.239.668-.584 1.178-1.036 1.53-.451.35-.998.524-1.64.524zm0-.937c.636 0 1.13-.307 1.483-.921.352-.613.528-1.488.528-2.625 0-.755-.081-1.399-.243-1.93-.159-.531-.39-.936-.69-1.215a1.525 1.525 0 00-1.078-.417c-.631 0-1.124.311-1.48.933-.354.619-.532 1.496-.532 2.629 0 .756.08 1.398.239 1.926.159.529.388.931.686 1.206.301.276.663.414 1.087.414zm7.5.937c-.642 0-1.19-.174-1.641-.524-.452-.352-.797-.862-1.035-1.53-.24-.67-.359-1.48-.359-2.429 0-.943.12-1.748.358-2.416.242-.67.589-1.182 1.04-1.534.455-.355 1-.533 1.637-.533.636 0 1.18.178 1.632.533.454.352.8.864 1.04 1.534.241.668.362 1.473.362 2.416 0 .949-.12 1.759-.358 2.429-.239.668-.584 1.178-1.036 1.53-.451.35-.998.524-1.64.524zm0-.937c.636 0 1.13-.307 1.483-.921.352-.613.528-1.488.528-2.625 0-.755-.081-1.399-.243-1.93-.159-.531-.39-.936-.69-1.215a1.525 1.525 0 00-1.078-.417c-.631 0-1.124.311-1.48.933-.354.619-.532 1.496-.532 2.629 0 .756.08 1.398.239 1.926.159.529.388.931.686 1.206.301.276.663.414 1.087.414zm-14.544 52.091V196h-1.057v-7.619h-.051l-2.131 1.414v-1.073l2.182-1.449h1.057zm5.356 8.846c-.642 0-1.189-.174-1.64-.524-.452-.352-.797-.862-1.036-1.53-.239-.67-.358-1.48-.358-2.429 0-.943.12-1.748.358-2.416.241-.67.588-1.182 1.04-1.534.454-.355 1-.533 1.636-.533.636 0 1.18.178 1.632.533.455.352.801.864 1.04 1.534.242.668.362 1.473.362 2.416 0 .949-.12 1.759-.358 2.429-.238.668-.584 1.178-1.035 1.53-.452.35-.999.524-1.64.524zm0-.937c.636 0 1.13-.307 1.483-.921.352-.613.529-1.488.529-2.625 0-.755-.082-1.399-.243-1.93-.16-.531-.39-.936-.69-1.215a1.525 1.525 0 00-1.079-.417c-.63 0-1.123.311-1.479.933-.355.619-.532 1.496-.532 2.629 0 .756.08 1.398.238 1.926.16.529.388.931.687 1.206.3.276.663.414 1.086.414zm7.5.937c-.642 0-1.189-.174-1.64-.524-.452-.352-.797-.862-1.036-1.53-.239-.67-.358-1.48-.358-2.429 0-.943.12-1.748.358-2.416.242-.67.588-1.182 1.04-1.534.454-.355 1-.533 1.636-.533.636 0 1.18.178 1.632.533.455.352.801.864 1.04 1.534.242.668.362 1.473.362 2.416 0 .949-.12 1.759-.358 2.429-.238.668-.584 1.178-1.035 1.53-.452.35-.999.524-1.64.524zm0-.937c.636 0 1.13-.307 1.483-.921.352-.613.529-1.488.529-2.625 0-.755-.082-1.399-.243-1.93-.16-.531-.39-.936-.69-1.215a1.525 1.525 0 00-1.079-.417c-.63 0-1.123.311-1.479.933-.355.619-.532 1.496-.532 2.629 0 .756.08 1.398.238 1.926.16.529.388.931.687 1.206.3.276.663.414 1.086.414zM27.75 256.119c-.642 0-1.189-.174-1.64-.524-.452-.352-.797-.862-1.036-1.53-.239-.67-.358-1.48-.358-2.429 0-.943.12-1.748.358-2.416.241-.67.588-1.182 1.04-1.534.454-.355 1-.533 1.636-.533.636 0 1.18.178 1.632.533.455.352.801.864 1.04 1.534.241.668.362 1.473.362 2.416 0 .949-.12 1.759-.358 2.429-.238.668-.584 1.178-1.035 1.53-.452.35-.999.524-1.641.524zm0-.937c.636 0 1.13-.307 1.483-.921.352-.613.528-1.488.528-2.625 0-.755-.08-1.399-.242-1.93-.16-.531-.39-.936-.69-1.215a1.525 1.525 0 00-1.079-.417c-.63 0-1.124.311-1.479.933-.355.619-.532 1.496-.532 2.629 0 .756.08 1.398.238 1.926.16.529.388.931.686 1.206.302.276.664.414 1.087.414zm55.257 20.273a1.339 1.339 0 00-.622-1.006c-.364-.239-.81-.358-1.338-.358-.386 0-.724.062-1.014.187a1.618 1.618 0 00-.673.516c-.16.219-.24.467-.24.746 0 .233.056.433.167.601.114.164.259.302.435.413.176.108.36.197.554.268.193.069.37.124.532.167l.887.238c.227.06.48.142.758.247.282.106.55.249.806.431.258.179.471.409.639.69.168.281.251.627.251 1.036 0 .471-.123.897-.37 1.278-.245.381-.603.683-1.074.908-.469.224-1.039.336-1.71.336-.624 0-1.165-.1-1.623-.302a2.588 2.588 0 01-1.073-.844 2.408 2.408 0 01-.44-1.257h1.092c.028.33.139.602.332.818a1.8 1.8 0 00.741.477c.302.103.625.154.972.154.403 0 .766-.065 1.087-.196.32-.134.575-.318.762-.554a1.31 1.31 0 00.282-.835c0-.29-.081-.526-.243-.708a1.784 1.784 0 00-.64-.443 6.627 6.627 0 00-.856-.298l-1.074-.307c-.682-.196-1.221-.476-1.62-.84-.397-.363-.596-.839-.596-1.427 0-.489.132-.915.397-1.279.266-.366.624-.65 1.073-.852a3.635 3.635 0 011.513-.307c.563 0 1.063.101 1.5.303a2.6 2.6 0 011.04.818c.258.347.395.74.409 1.181h-1.023zm6.868 3.869v-3.869h1.006V282h-1.005v-1.108h-.069a2.151 2.151 0 01-.716.848c-.323.23-.732.345-1.227.345a2.18 2.18 0 01-1.09-.268 1.883 1.883 0 01-.75-.818c-.183-.367-.273-.829-.273-1.385v-4.159h1.005v4.09c0 .478.134.858.4 1.143.27.284.614.426 1.032.426.25 0 .504-.064.763-.192.261-.128.48-.324.656-.588.179-.264.269-.601.269-1.01zm3.854-1.262V282h-1.006v-6.545h.972v1.022h.085c.153-.332.386-.599.699-.801.312-.204.716-.307 1.21-.307.443 0 .831.091 1.164.273.332.179.59.452.775.818.185.364.277.824.277 1.381V282h-1.006v-4.091c0-.514-.133-.915-.4-1.202-.267-.289-.634-.434-1.1-.434-.32 0-.608.069-.86.209-.25.139-.448.342-.593.609-.145.267-.217.591-.217.971zm155.233-4.789h1.262l2.966 7.244h.102l2.966-7.244h1.261V282h-.988v-6.631h-.086L253.718 282h-.954l-2.728-6.631h-.085V282h-.989v-8.727zm13.199 8.863c-.591 0-1.109-.14-1.555-.422a2.856 2.856 0 01-1.04-1.18c-.247-.506-.371-1.097-.371-1.773 0-.681.124-1.277.371-1.785.25-.509.596-.904 1.04-1.185.446-.281.964-.422 1.555-.422s1.108.141 1.551.422c.446.281.793.676 1.04 1.185.25.508.375 1.104.375 1.785 0 .676-.125 1.267-.375 1.773a2.822 2.822 0 01-1.04 1.18c-.443.282-.96.422-1.551.422zm0-.903c.449 0 .818-.115 1.108-.345.29-.23.504-.533.643-.908.14-.375.209-.781.209-1.219 0-.437-.069-.845-.209-1.223a2.061 2.061 0 00-.643-.916c-.29-.233-.659-.349-1.108-.349-.449 0-.818.116-1.108.349-.29.233-.504.539-.644.916a3.518 3.518 0 00-.208 1.223c0 .438.069.844.208 1.219.14.375.354.678.644.908.29.23.659.345 1.108.345zm5.507-3.171V282h-1.006v-6.545h.972v1.022h.085c.153-.332.386-.599.699-.801.312-.204.716-.307 1.21-.307.443 0 .831.091 1.163.273.333.179.591.452.776.818.184.364.277.824.277 1.381V282h-1.006v-4.091c0-.514-.133-.915-.4-1.202-.268-.289-.634-.434-1.1-.434-.321 0-.608.069-.861.209-.25.139-.447.342-.592.609-.145.267-.217.591-.217.971zm154.695-3.852v-.937h6.546v.937h-2.745V282h-1.056v-7.79h-2.745zm11.275 5.114v-3.869h1.006V282h-1.006v-1.108h-.068a2.154 2.154 0 01-.716.848c-.324.23-.733.345-1.228.345-.409 0-.772-.089-1.09-.268a1.873 1.873 0 01-.75-.818c-.182-.367-.273-.829-.273-1.385v-4.159h1.006v4.09c0 .478.133.858.4 1.143.27.284.614.426 1.031.426.25 0 .505-.064.763-.192a1.66 1.66 0 00.656-.588c.179-.264.269-.601.269-1.01zm5.592 2.812c-.631 0-1.175-.139-1.632-.417a2.803 2.803 0 01-1.053-1.176c-.244-.506-.366-1.094-.366-1.765 0-.67.122-1.261.366-1.772a2.888 2.888 0 011.031-1.202c.444-.29.961-.435 1.552-.435a3.1 3.1 0 011.01.171c.332.113.634.298.907.554.273.253.49.588.652 1.005.162.418.243.932.243 1.543v.426h-5.045v-.869h4.022c0-.369-.074-.699-.221-.989a1.677 1.677 0 00-.622-.686 1.749 1.749 0 00-.946-.251c-.401 0-.748.099-1.04.298a1.96 1.96 0 00-.669.767 2.255 2.255 0 00-.235 1.014v.58c0 .494.086.913.256 1.257.173.341.413.601.72.78.307.176.664.264 1.07.264.264 0 .503-.037.716-.111.216-.077.402-.19.558-.341.156-.153.277-.344.362-.571l.972.273a2.149 2.149 0 01-.516.869c-.241.247-.54.441-.895.58a3.325 3.325 0 01-1.197.204zM594.533 282l-2.387-8.727h1.074l1.824 7.108h.085l1.858-7.108h1.193l1.858 7.108h.086l1.823-7.108h1.074L600.635 282h-1.091l-1.926-6.955h-.068L595.624 282h-1.091zm11.804.136c-.631 0-1.175-.139-1.632-.417a2.803 2.803 0 01-1.053-1.176c-.244-.506-.366-1.094-.366-1.765 0-.67.122-1.261.366-1.772a2.888 2.888 0 011.031-1.202c.443-.29.96-.435 1.551-.435.341 0 .678.057 1.01.171.333.113.635.298.908.554.273.253.49.588.652 1.005.162.418.243.932.243 1.543v.426h-5.046v-.869h4.023c0-.369-.074-.699-.221-.989a1.673 1.673 0 00-.623-.686 1.746 1.746 0 00-.946-.251c-.4 0-.747.099-1.039.298a1.96 1.96 0 00-.669.767 2.242 2.242 0 00-.235 1.014v.58c0 .494.085.913.256 1.257.173.341.413.601.72.78.307.176.663.264 1.07.264.264 0 .502-.037.716-.111.215-.077.402-.19.558-.341.156-.153.277-.344.362-.571l.972.273a2.171 2.171 0 01-.516.869c-.241.247-.54.441-.895.58a3.325 3.325 0 01-1.197.204zm6.711 0c-.545 0-1.027-.137-1.444-.413-.418-.278-.745-.67-.98-1.176-.236-.509-.354-1.109-.354-1.803 0-.687.118-1.284.354-1.789.235-.506.564-.897.984-1.172.42-.276.906-.414 1.457-.414.426 0 .763.071 1.01.213.25.14.441.299.571.478.134.176.238.321.311.434h.086v-3.221h1.005V282h-.971v-1.006h-.12c-.073.12-.179.27-.315.452-.136.179-.331.34-.584.482-.253.139-.589.208-1.01.208zm.137-.903c.403 0 .744-.105 1.022-.315.279-.213.49-.507.635-.882.145-.378.218-.814.218-1.309 0-.488-.071-.916-.213-1.282a1.864 1.864 0 00-.631-.861c-.278-.208-.622-.311-1.031-.311-.426 0-.782.109-1.066.328-.281.216-.493.51-.635.882a3.51 3.51 0 00-.208 1.244c0 .466.071.889.213 1.27.145.378.358.679.639.904.284.221.636.332 1.057.332zm153.847-7.023v-.937h6.545v.937h-2.744V282h-1.057v-7.79h-2.744zm9.046 3.852V282h-1.006v-8.727h1.006v3.204h.085c.153-.338.383-.606.69-.805.31-.202.722-.303 1.236-.303.446 0 .837.09 1.172.269.335.176.595.447.78.814.187.363.281.826.281 1.389V282h-1.006v-4.091c0-.52-.135-.922-.404-1.206-.267-.287-.638-.43-1.113-.43-.329 0-.625.069-.886.209a1.524 1.524 0 00-.614.609c-.147.267-.221.591-.221.971zm10.209 1.262v-3.869h1.006V282h-1.006v-1.108h-.068a2.154 2.154 0 01-.716.848c-.324.23-.733.345-1.227.345-.41 0-.773-.089-1.091-.268a1.873 1.873 0 01-.75-.818c-.182-.367-.273-.829-.273-1.385v-4.159h1.006v4.09c0 .478.133.858.4 1.143.27.284.614.426 1.031.426.25 0 .505-.064.763-.192a1.66 1.66 0 00.656-.588c.179-.264.269-.601.269-1.01zM938.581 282v-8.727h5.233v.937h-4.176v2.949h3.784v.938h-3.784V282h-1.057zm6.836 0v-6.545h.972v.988h.068c.119-.324.335-.586.648-.788a1.9 1.9 0 011.056-.303 10.785 10.785 0 01.529.017v1.023a3.308 3.308 0 00-.234-.038c-.12-.02-.246-.03-.38-.03-.318 0-.602.067-.852.2a1.468 1.468 0 00-.801 1.334V282h-1.006zm4.465 0v-6.545h1.006V282h-1.006zm.511-7.636a.713.713 0 01-.507-.201.643.643 0 01-.209-.481c0-.188.07-.348.209-.482a.717.717 0 01.507-.2c.196 0 .364.067.503.2a.639.639 0 01.213.482.636.636 0 01-.213.481.7.7 0 01-.503.201zm156.547 1.091a1.343 1.343 0 00-.62-1.006c-.36-.239-.81-.358-1.34-.358-.38 0-.72.062-1.01.187-.29.125-.51.297-.67.516-.16.219-.24.467-.24.746 0 .233.05.433.16.601.12.164.26.302.44.413.17.108.36.197.55.268.19.069.37.124.53.167l.89.238c.23.06.48.142.76.247.28.106.55.249.8.431.26.179.48.409.64.69.17.281.25.627.25 1.036 0 .471-.12.897-.37 1.278-.24.381-.6.683-1.07.908-.47.224-1.04.336-1.71.336-.62 0-1.16-.1-1.62-.302a2.628 2.628 0 01-1.08-.844 2.44 2.44 0 01-.43-1.257h1.09c.02.33.14.602.33.818.19.213.44.372.74.477.3.103.62.154.97.154.4 0 .77-.065 1.09-.196.32-.134.57-.318.76-.554.19-.239.28-.517.28-.835 0-.29-.08-.526-.24-.708a1.808 1.808 0 00-.64-.443 6.31 6.31 0 00-.86-.298l-1.07-.307c-.68-.196-1.22-.476-1.62-.84-.4-.363-.6-.839-.6-1.427 0-.489.14-.915.4-1.279.27-.366.63-.65 1.07-.852.46-.204.96-.307 1.52-.307s1.06.101 1.5.303c.43.199.78.472 1.04.818.25.347.39.74.41 1.181h-1.03zm4.67 6.698c-.41 0-.79-.078-1.13-.234a1.92 1.92 0 01-.8-.686c-.2-.301-.3-.665-.3-1.091 0-.375.07-.679.22-.912.15-.236.35-.42.59-.554.25-.133.52-.233.82-.298.3-.068.61-.122.91-.162.4-.051.72-.09.97-.115.25-.029.43-.075.54-.141.12-.065.18-.179.18-.341v-.034c0-.42-.12-.747-.35-.98-.23-.233-.57-.349-1.03-.349-.48 0-.86.105-1.13.315-.28.21-.47.435-.58.673l-.95-.341c.17-.397.39-.707.68-.929.29-.224.6-.38.94-.468a3.84 3.84 0 011-.137c.21 0 .45.026.73.077.27.048.54.149.79.303.26.153.48.385.65.694.17.31.25.725.25 1.245V282h-1v-.886h-.05c-.07.142-.19.294-.35.456-.15.162-.37.299-.63.413-.26.114-.59.17-.97.17zm.16-.903c.39 0 .73-.078 1-.234.28-.157.48-.358.62-.605.15-.248.22-.508.22-.78v-.921c-.05.051-.14.098-.28.141-.15.04-.31.075-.5.106-.18.029-.36.054-.54.077l-.42.051c-.26.034-.51.09-.74.166-.22.074-.4.186-.54.337-.14.148-.21.349-.21.605 0 .35.13.614.39.793.26.176.6.264 1 .264zm7.52-5.795v.852h-3.39v-.852h3.39zm-2.4-1.569h1.01v6.239c0 .284.04.497.12.639.09.139.19.233.32.281.14.046.28.069.43.069.11 0 .2-.006.27-.017l.17-.035.2.904a2.157 2.157 0 01-.75.119c-.28 0-.56-.061-.83-.183-.27-.122-.5-.308-.67-.558-.18-.25-.27-.566-.27-.946v-6.512z" fill="#9D9FA2"/><path d="M77 136.467c28.269-5.335 203.573 10.672 238.285-9.891 43.389-25.704 77.745-108.25 116.844-61.886 41.924 49.714 112.811-106.567 170.915-50.276 26.251 25.432 82.793 103.624 138.61 103.624 45.362 0 45.298-73.627 136.023-73.627 90.724 0 82.569 92.056 242.323 92.056" stroke="#20C997" stroke-width="3"/><path d="M315.285 126.576c-34.712 20.563-210.016 4.556-238.285 9.891V242h1043V136.467c-159.754 0-151.599-92.056-242.323-92.056-90.725 0-90.661 73.627-136.023 73.627-55.817 0-112.359-78.192-138.61-103.624-58.104-56.29-128.991 99.99-170.915 50.276-39.099-46.364-73.455 36.182-116.844 61.886z" fill="url(#paint0_linear_1_280)"/><path d="M203.483 117.52C169.235 133.621 104.891 146.001 77 150.178V242h1043V93.977c-157.618 0-159.563 96.453-249.075 96.453-89.511 0-93.403-103.84-138.158-103.84-44.756 0-33.08 78.777-136.213 75.36-103.132-3.418-153.726-37.215-215.994-67.973-61.934-30.593-133.492 3.051-176.383 23.217l-.694.326z" fill="url(#paint1_linear_1_280)"/><path d="M77 150.178c27.891-4.177 92.235-16.557 126.483-32.658 42.81-20.126 114.808-54.302 177.077-23.543 62.268 30.758 112.862 64.555 215.994 67.973 103.133 3.417 91.457-74.868 136.213-74.868 44.755 0 48.647 103.348 138.158 103.348 89.512 0 91.457-96.453 249.075-96.453" stroke="#679CF6" stroke-width="3"/><defs><linearGradient id="paint0_linear_1_280" x1="598.5" y1="2" x2="598.5" y2="242" gradientUnits="userSpaceOnUse"><stop stop-color="#20C997" stop-opacity=".13"/><stop offset="1" stop-color="#20C997" stop-opacity="0"/></linearGradient><linearGradient id="paint1_linear_1_280" x1="598.5" y1="81.672" x2="598.5" y2="242" gradientUnits="userSpaceOnUse"><stop stop-color="#4285F4" stop-opacity=".25"/><stop offset="1" stop-color="#4285F4" stop-opacity="0"/></linearGradient></defs></svg>