<svg width="19" height="18" fill="none" xmlns="http://www.w3.org/2000/svg"><path fill-rule="evenodd" clip-rule="evenodd" d="M2.022 1.948a.25.25 0 01.25-.25h4a.25.25 0 01.25.25v4a.25.25 0 01-.25.25h-4a.25.25 0 01-.25-.25v-4zm.25-1.75a1.75 1.75 0 00-1.75 1.75v4c0 .966.784 1.75 1.75 1.75h4a1.75 1.75 0 001.75-1.75v-4a1.75 1.75 0 00-1.75-1.75h-4zm9.75 1.75a.25.25 0 01.25-.25h4a.25.25 0 01.25.25v4a.25.25 0 01-.25.25h-4a.25.25 0 01-.25-.25v-4zm.25-1.75a1.75 1.75 0 00-1.75 1.75v4c0 .966.784 1.75 1.75 1.75h4a1.75 1.75 0 001.75-1.75v-4a1.75 1.75 0 00-1.75-1.75h-4zm-10 11.5a.25.25 0 00-.25.25v4c0 .138.112.25.25.25h4a.25.25 0 00.25-.25v-4a.25.25 0 00-.25-.25h-4zm-1.75.25c0-.966.784-1.75 1.75-1.75h4c.967 0 1.75.784 1.75 1.75v4a1.75 1.75 0 01-1.75 1.75h-4a1.75 1.75 0 01-1.75-1.75v-4zm11.5 0a.25.25 0 01.25-.25h4a.25.25 0 01.25.25v4a.25.25 0 01-.25.25h-4a.25.25 0 01-.25-.25v-4zm.25-1.75a1.75 1.75 0 00-1.75 1.75v4c0 .966.784 1.75 1.75 1.75h4a1.75 1.75 0 001.75-1.75v-4a1.75 1.75 0 00-1.75-1.75h-4z" fill="#5F6980"/></svg>