<svg width="64" height="64" fill="none" xmlns="http://www.w3.org/2000/svg"><g filter="url(#filter0_d_1_364)"><rect x="10" y="9" width="44" height="44" rx="9.429" fill="#fff"/><path d="M27.531 44.75a4.47 4.47 0 004.47-4.469v-4.468h-4.47a4.47 4.47 0 00-4.468 4.468 4.47 4.47 0 004.468 4.469z" fill="#0ACF83"/><path d="M23.063 31.344a4.47 4.47 0 014.468-4.469h4.47v8.938h-4.47a4.47 4.47 0 01-4.468-4.47z" fill="#A259FF"/><path d="M23.063 22.406a4.47 4.47 0 014.468-4.468h4.47v8.937h-4.47a4.47 4.47 0 01-4.468-4.469z" fill="#F24E1E"/><path d="M32 17.938h4.469a4.47 4.47 0 014.469 4.468 4.47 4.47 0 01-4.47 4.469H32v-8.938z" fill="#FF7262"/><path d="M40.938 31.344a4.47 4.47 0 01-4.47 4.468A4.47 4.47 0 0132 31.345a4.47 4.47 0 014.469-4.469 4.47 4.47 0 014.469 4.469z" fill="#1ABCFE"/><rect x="10" y="9" width="44" height="44" rx="9.429" stroke="#F2F4F7"/></g><defs><filter id="filter0_d_1_364" x="0" y="0" width="64" height="64" filterUnits="userSpaceOnUse" color-interpolation-filters="sRGB"><feFlood flood-opacity="0" result="BackgroundImageFix"/><feColorMatrix in="SourceAlpha" values="0 0 0 0 0 0 0 0 0 0 0 0 0 0 0 0 0 0 127 0" result="hardAlpha"/><feOffset dy="1"/><feGaussianBlur stdDeviation="5"/><feColorMatrix values="0 0 0 0 0 0 0 0 0 0 0 0 0 0 0 0 0 0 0.06 0"/><feBlend in2="BackgroundImageFix" result="effect1_dropShadow_1_364"/><feBlend in="SourceGraphic" in2="effect1_dropShadow_1_364" result="shape"/></filter></defs></svg>