<svg width="20" height="20" fill="none" xmlns="http://www.w3.org/2000/svg"><path fill-rule="evenodd" clip-rule="evenodd" d="M6.945 6.667a2.708 2.708 0 115.417 0 2.708 2.708 0 01-5.417 0zm2.709-3.958a3.958 3.958 0 100 7.916 3.958 3.958 0 000-7.916zM6.072 13.832a2.708 2.708 0 011.915-.793h3.333a2.708 2.708 0 012.709 2.708v1.667a.625.625 0 001.25 0v-1.667a3.959 3.959 0 00-3.959-3.958H7.987a3.958 3.958 0 00-3.958 3.958v1.667a.625.625 0 001.25 0v-1.667c0-.718.285-1.407.793-1.915z" fill="#5F6980"/></svg>