<svg width="21" height="20" fill="none" xmlns="http://www.w3.org/2000/svg"><path fill-rule="evenodd" clip-rule="evenodd" d="M10.918 2.031c-.112 0-.224.002-.336.007a.47.47 0 00-.211.012 7.97 7.97 0 000 15.9.47.47 0 00.211.012 8.134 8.134 0 00.671 0 .47.47 0 00.212-.011 7.97 7.97 0 000-15.902.47.47 0 00-.211-.011 8.101 8.101 0 00-.336-.007zm.155.94a7.158 7.158 0 00-.31 0 13.68 13.68 0 00-1.616 4.06h3.542a13.68 13.68 0 00-1.616-4.06zm1.79 4.998h-3.89a13.716 13.716 0 000 4.062h3.89a13.716 13.716 0 000-4.062zm.947 4.062a14.66 14.66 0 000-4.062h3.841A7.03 7.03 0 0117.95 10a7.03 7.03 0 01-.298 2.031h-3.84zm-1.122.938h-3.54a13.68 13.68 0 001.615 4.06 7.26 7.26 0 00.31 0 13.677 13.677 0 001.615-4.06zm-.47 3.942a14.61 14.61 0 001.43-3.942h3.645a7.042 7.042 0 01-5.076 3.942zm1.43-9.88a14.613 14.613 0 00-1.43-3.942 7.042 7.042 0 015.075 3.942h-3.645zm-4.03 9.88a14.61 14.61 0 01-1.43-3.942H4.543a7.042 7.042 0 005.075 3.942zm-1.593-4.88a14.655 14.655 0 010-4.062h-3.84A7.031 7.031 0 003.887 10c0 .706.104 1.388.298 2.031h3.84zm.163-5c.281-1.36.758-2.688 1.43-3.942A7.042 7.042 0 004.543 7.03h3.645z" fill="#5F6980"/></svg>