<svg width="21" height="20" fill="none" xmlns="http://www.w3.org/2000/svg"><path fill-rule="evenodd" clip-rule="evenodd" d="M5.14 2.665a2.292 2.292 0 00-2.29 2.292v10a2.292 2.292 0 002.292 2.292h5.833a2.292 2.292 0 002.292-2.292V13.29a.625.625 0 00-1.25 0v1.667a1.042 1.042 0 01-1.042 1.042H5.141a1.042 1.042 0 01-1.042-1.042v-10a1.042 1.042 0 011.042-1.042h5.833a1.042 1.042 0 011.042 1.042v1.667a.625.625 0 101.25 0V4.957a2.292 2.292 0 00-2.292-2.292H5.141zm11.276 4.35a.625.625 0 00-.884.884l1.433 1.433H6.807a.625.625 0 000 1.25h10.158l-1.433 1.433a.625.625 0 10.884.884l2.497-2.497a.621.621 0 00.003-.887l-2.5-2.5z" fill="#5F6980"/></svg>