<svg width="100" height="23" fill="none" xmlns="http://www.w3.org/2000/svg"><path fill-rule="evenodd" clip-rule="evenodd" d="M4.992 5.26c0-2.757 2.23-5 4.991-5a4.995 4.995 0 014.992 5 4.995 4.995 0 014.991 5h-2.495c0-1.375-1.123-2.5-2.496-2.5v-2.5h-2.496c0-1.375-1.122-2.5-2.495-2.5a2.504 2.504 0 00-2.496 2.5H4.992zM31.658 18.1c-2.043 0-3.663-.57-4.857-1.707-1.195-1.155-1.793-2.799-1.793-4.933V7.475c0-2.134.598-3.77 1.793-4.908C27.995 1.413 29.615.836 31.659.836c2.028 0 3.592.56 4.692 1.683 1.117 1.107 1.675 2.632 1.675 4.577v.142H34.96v-.237c0-.98-.275-1.786-.825-2.419-.535-.632-1.36-.948-2.476-.948-1.101 0-1.966.34-2.595 1.02-.628.68-.943 1.604-.943 2.774v4.079c0 1.154.315 2.078.944 2.774.628.68 1.493 1.02 2.593 1.02 1.117 0 1.942-.316 2.477-.949.55-.648.825-1.454.825-2.419v-.426h3.066v.332c0 1.944-.558 3.477-1.675 4.6-1.1 1.107-2.664 1.66-4.692 1.66zm8.256-.332v-16.6h2.972v16.6h-2.972zm7.951-.38c.928.475 1.973.712 3.137.712 1.163 0 2.209-.237 3.136-.712a5.317 5.317 0 002.193-2.063c.535-.9.802-1.984.802-3.248v-.38c0-1.264-.267-2.347-.802-3.248a5.317 5.317 0 00-2.193-2.064c-.927-.474-1.973-.71-3.136-.71-1.164 0-2.209.236-3.137.71a5.318 5.318 0 00-2.193 2.064c-.534.9-.802 1.983-.802 3.248v.38c0 1.264.268 2.347.802 3.248a5.317 5.317 0 002.193 2.063zm5.4-2.822c-.597.585-1.351.878-2.263.878-.912 0-1.667-.293-2.264-.877-.597-.601-.896-1.455-.896-2.562v-.237c0-1.106.299-1.952.896-2.537.597-.6 1.352-.901 2.264-.901.927 0 1.682.3 2.264.901.597.585.896 1.43.896 2.537v.238c0 1.106-.299 1.96-.896 2.56zm5.869 3.202V6.005h2.924v1.541h.425c.188-.41.542-.798 1.06-1.162.52-.379 1.306-.569 2.359-.569.912 0 1.706.214 2.382.64a4.153 4.153 0 011.603 1.732c.378.727.566 1.58.566 2.56v7.02h-2.971v-6.782c0-.885-.22-1.55-.66-1.992-.425-.443-1.038-.664-1.84-.664-.912 0-1.619.308-2.122.925-.503.6-.755 1.446-.755 2.537v5.976h-2.971zm13.79-11.762v11.762h2.97V6.005h-2.97zm.117-1.897c.378.348.834.522 1.368.522.55 0 1.006-.174 1.368-.522.361-.348.542-.806.542-1.375 0-.57-.18-1.028-.542-1.376-.362-.348-.818-.521-1.368-.521-.534 0-.99.173-1.368.521-.361.348-.542.807-.542 1.376 0 .569.18 1.027.542 1.375zm7.338 13.659V8.47h-2.971V6.005h2.971V3.823c0-.806.236-1.446.708-1.92.487-.49 1.116-.735 1.886-.735h3.066v2.466h-2.028c-.44 0-.66.237-.66.711v1.66h3.065v2.466h-3.065v9.296h-2.972zm8.87 2.134v2.608h7.357c.786 0 1.415-.245 1.886-.735.472-.474.708-1.114.708-1.92V6.005h-2.972v5.976c0 1.09-.251 1.944-.754 2.56-.503.602-1.21.902-2.123.902-.801 0-1.422-.221-1.863-.664-.424-.443-.636-1.107-.636-1.992V6.005H87.88v7.02c0 .963.189 1.817.566 2.56a4.368 4.368 0 001.58 1.755c.692.411 1.494.616 2.406.616.707 0 1.289-.086 1.745-.26.456-.174.817-.396 1.084-.664.268-.269.464-.538.59-.806h.425v2.964c0 .474-.22.711-.66.711h-6.368zm-74.274-4.64v-2.5a2.504 2.504 0 002.496-2.5h2.495c0 2.765-2.23 5-4.991 5zm-4.99-.335a4.66 4.66 0 004.656-4.665 4.651 4.651 0 00-4.657-4.665 4.651 4.651 0 00-4.657 4.665 4.66 4.66 0 004.657 4.665zm0-2.332a2.335 2.335 0 01-2.33-2.333 2.335 2.335 0 012.33-2.332 2.335 2.335 0 012.328 2.332 2.335 2.335 0 01-2.329 2.333zM0 10.26h2.496c0 1.375 1.122 2.5 2.496 2.5v2.5a4.99 4.99 0 01-4.992-5zm0 0h2.496c0-1.376 1.122-2.5 2.496-2.5v-2.5a4.995 4.995 0 00-4.992 5zm7.488 5c0 1.376 1.122 2.5 2.495 2.5a2.504 2.504 0 002.496-2.5h2.496a4.99 4.99 0 11-9.983 0h2.496z" fill="#282828"/></svg>