<svg width="64" height="64" fill="none" xmlns="http://www.w3.org/2000/svg"><g filter="url(#filter0_d_1_390)"><rect x="10" y="9" width="44" height="44" rx="9.429" fill="#fff"/><path d="M21.146 34.538c0 1.028.225 1.816.518 2.294.386.625.96.89 1.546.89.755 0 1.446-.188 2.777-2.036 1.067-1.482 2.324-3.561 3.17-4.865l1.432-2.208c.995-1.534 2.146-3.24 3.466-4.395 1.079-.943 2.241-1.467 3.411-1.467 1.965 0 3.836 1.142 5.268 3.285 1.568 2.347 2.329 5.304 2.329 8.355 0 1.813-.357 3.146-.963 4.199-.585 1.018-1.727 2.035-3.646 2.035v-2.903c1.643 0 2.054-1.516 2.054-3.251 0-2.473-.575-5.217-1.84-7.177-.898-1.391-2.061-2.24-3.342-2.24-1.384 0-2.499 1.048-3.75 2.916-.667.993-1.35 2.203-2.117 3.569l-.845 1.502c-1.697 3.02-2.127 3.708-2.976 4.843-1.487 1.987-2.757 2.74-4.428 2.74-1.984 0-3.238-.861-4.015-2.16-.634-1.059-.945-2.447-.945-4.03l2.896.104z" fill="#0081FB"/><path d="M20.534 26.24c1.327-2.053 3.244-3.49 5.441-3.49 1.273 0 2.538.378 3.86 1.46 1.445 1.184 2.985 3.135 4.907 6.347l.689 1.153c1.663 2.781 2.61 4.212 3.163 4.887.713.866 1.212 1.125 1.86 1.125 1.644 0 2.054-1.516 2.054-3.252l2.555-.08c0 1.814-.357 3.146-.963 4.2-.585 1.017-1.727 2.035-3.646 2.035-1.194 0-2.251-.26-3.42-1.368-.899-.85-1.95-2.359-2.759-3.716l-2.404-4.031c-1.207-2.024-2.314-3.532-2.954-4.215-.69-.735-1.575-1.622-2.989-1.622-1.143 0-2.115.805-2.928 2.038l-2.466-1.47z" fill="url(#paint0_linear_1_390)"/><path d="M25.928 25.673c-1.144 0-2.115.805-2.928 2.038-1.15 1.742-1.853 4.336-1.853 6.827 0 1.027.224 1.816.518 2.294l-2.47 1.632c-.634-1.059-.945-2.448-.945-4.03 0-2.878.787-5.877 2.284-8.193 1.327-2.055 3.244-3.491 5.441-3.491l-.047 2.923z" fill="url(#paint1_linear_1_390)"/><rect x="10" y="9" width="44" height="44" rx="9.429" stroke="#F2F4F7"/></g><defs><linearGradient id="paint0_linear_1_390" x1="23.42" y1="37.951" x2="41.804" y2="39.706" gradientUnits="userSpaceOnUse"><stop stop-color="#0064E1"/><stop offset=".4" stop-color="#0064E1"/><stop offset=".83" stop-color="#0073EE"/><stop offset="1" stop-color="#0082FB"/></linearGradient><linearGradient id="paint1_linear_1_390" x1="23.792" y1="35.758" x2="23.792" y2="28.927" gradientUnits="userSpaceOnUse"><stop stop-color="#0082FB"/><stop offset="1" stop-color="#0064E0"/></linearGradient><filter id="filter0_d_1_390" x="0" y="0" width="64" height="64" filterUnits="userSpaceOnUse" color-interpolation-filters="sRGB"><feFlood flood-opacity="0" result="BackgroundImageFix"/><feColorMatrix in="SourceAlpha" values="0 0 0 0 0 0 0 0 0 0 0 0 0 0 0 0 0 0 127 0" result="hardAlpha"/><feOffset dy="1"/><feGaussianBlur stdDeviation="5"/><feColorMatrix values="0 0 0 0 0 0 0 0 0 0 0 0 0 0 0 0 0 0 0.06 0"/><feBlend in2="BackgroundImageFix" result="effect1_dropShadow_1_390"/><feBlend in="SourceGraphic" in2="effect1_dropShadow_1_390" result="shape"/></filter></defs></svg>