<svg width="21" height="20" fill="none" xmlns="http://www.w3.org/2000/svg"><path fill-rule="evenodd" clip-rule="evenodd" d="M10.71 6.458a1.667 1.667 0 113.333 0 1.667 1.667 0 01-3.333 0zm-1.183.625H3.418a.625.625 0 110-1.25h6.109a2.918 2.918 0 015.699 0h3.192a.625.625 0 010 1.25h-3.192a2.918 2.918 0 01-5.7 0zM5.71 13.125a1.667 1.667 0 113.333 0 1.667 1.667 0 01-3.333 0zm1.666 2.916a2.918 2.918 0 01-2.85-2.291H3.419a.625.625 0 010-1.25h1.109a2.918 2.918 0 015.699 0h8.192a.625.625 0 010 1.25h-8.192a2.918 2.918 0 01-2.85 2.291z" fill="#5F6980"/></svg>