<svg width="64" height="64" fill="none" xmlns="http://www.w3.org/2000/svg"><g filter="url(#filter0_d_1_438)"><rect x="10" y="9" width="44" height="44" rx="9.429" fill="#fff"/><g clip-path="url(#clip0_1_438)"><path d="M40.382 20.688h5.415L32.259 44.041l-13.54-23.355h10.358l3.181 5.416 3.114-5.416h5.01z" fill="#41B883"/><path d="M18.72 20.688l13.538 23.354 13.539-23.355h-5.415L32.259 34.7l-8.191-14.013H18.72z" fill="#41B883"/><path d="M24.067 20.688l8.191 14.08 8.123-14.08h-5.009l-3.114 5.415-3.181-5.416h-5.01z" fill="#35495E"/></g><rect x="10" y="9" width="44" height="44" rx="9.429" stroke="#F2F4F7"/></g><defs><clipPath id="clip0_1_438"><path fill="#fff" transform="translate(18.72 20.688)" d="M0 0h27.08v23.375H0z"/></clipPath><filter id="filter0_d_1_438" x="0" y="0" width="64" height="64" filterUnits="userSpaceOnUse" color-interpolation-filters="sRGB"><feFlood flood-opacity="0" result="BackgroundImageFix"/><feColorMatrix in="SourceAlpha" values="0 0 0 0 0 0 0 0 0 0 0 0 0 0 0 0 0 0 127 0" result="hardAlpha"/><feOffset dy="1"/><feGaussianBlur stdDeviation="5"/><feColorMatrix values="0 0 0 0 0 0 0 0 0 0 0 0 0 0 0 0 0 0 0.06 0"/><feBlend in2="BackgroundImageFix" result="effect1_dropShadow_1_438"/><feBlend in="SourceGraphic" in2="effect1_dropShadow_1_438" result="shape"/></filter></defs></svg>