<svg width="64" height="64" fill="none" xmlns="http://www.w3.org/2000/svg"><g filter="url(#filter0_d_1_332)"><rect x="10" y="9" width="44" height="44" rx="9.429" fill="#fff"/><path d="M23.238 34.79l-1.325.479-.07 3.893 4.587-1.655c-1.575-.52-2.723-1.439-3.192-2.716" fill="#FDBD39"/><path d="M23.932 30.672l-4.599 1.66 2.58 2.938 1.325-.479c-.467-1.273-.179-2.71.694-4.118" fill="#F69833"/><path d="M31.67 25.053c-5.856 2.113-9.631 6.473-8.431 9.738l21.205-7.651c-1.2-3.264-6.918-4.199-12.774-2.087" fill="#FECF33"/><path d="M36.01 36.878c5.857-2.112 9.639-6.453 8.432-9.737l-21.205 7.65c1.207 3.285 6.918 4.2 12.774 2.087" fill="#EE6723"/><path d="M44.442 27.14l-21.204 7.65c.415 1.132 2 1.689 4.22 1.689 2.166 0 4.939-.53 7.83-1.572 5.855-2.113 9.974-5.534 9.154-7.767" fill="#F69833"/><path d="M40.222 25.453c-2.165 0-4.939.529-7.83 1.572-5.855 2.112-9.974 5.532-9.154 7.765l21.205-7.65c-.416-1.131-1.999-1.687-4.22-1.687" fill="#FDBD39"/><path fill-rule="evenodd" clip-rule="evenodd" d="M36.315 37.715c1.192 1.098 2.112 1.654 2.736 1.654a.792.792 0 00.463-.134c.767-.532.182-2.332-.443-3.748l-.05-.11-.106.06-.255.14-.088.047.041.092c.882 1.998.882 2.924.614 3.11a.315.315 0 01-.183.048c-.22 0-.893-.149-2.386-1.524-1.385-1.276-2.974-3.149-4.477-5.277-1.503-2.127-2.735-4.249-3.471-5.975-.792-1.855-.775-2.72-.52-2.897a.31.31 0 01.179-.045c.265 0 1.08.199 2.933 2.042l.168.167.019-.236.031-.36.006-.052-.038-.037c-1.72-1.671-2.65-2.022-3.126-2.022a.79.79 0 00-.461.134c-.587.408-.47 1.585.346 3.5.75 1.758 2 3.912 3.522 6.067 1.523 2.155 3.137 4.057 4.546 5.356z" fill="#EE6723"/><path d="M36.153 36.818l-.008.108c-.149 1.809-.538 3.984-1.555 4.072-.021.002-.042.002-.062.002-.69 0-1.344-.977-1.941-2.904-.567-1.823-1.005-4.27-1.236-6.891-.232-2.621-.228-5.107.01-7 .258-2.063.751-3.14 1.465-3.202A.655.655 0 0132.89 21c.501 0 1.256.56 2.028 3.17l-.504.095c-.258-.87-.539-1.58-.818-2.068-.258-.45-.51-.699-.706-.699l-.02.001c-.31.027-.76.767-1.01 2.768-.234 1.858-.237 4.308-.009 6.894.229 2.588.66 4.999 1.216 6.789.248.801.52 1.462.79 1.91.246.414.485.642.67.642l.02-.001c.296-.025.854-.796 1.088-3.509l.518-.174z" fill="#EE6723"/><rect x="10" y="9" width="44" height="44" rx="9.429" stroke="#F2F4F7"/></g><defs><filter id="filter0_d_1_332" x="0" y="0" width="64" height="64" filterUnits="userSpaceOnUse" color-interpolation-filters="sRGB"><feFlood flood-opacity="0" result="BackgroundImageFix"/><feColorMatrix in="SourceAlpha" values="0 0 0 0 0 0 0 0 0 0 0 0 0 0 0 0 0 0 127 0" result="hardAlpha"/><feOffset dy="1"/><feGaussianBlur stdDeviation="5"/><feColorMatrix values="0 0 0 0 0 0 0 0 0 0 0 0 0 0 0 0 0 0 0.06 0"/><feBlend in2="BackgroundImageFix" result="effect1_dropShadow_1_332"/><feBlend in="SourceGraphic" in2="effect1_dropShadow_1_332" result="shape"/></filter></defs></svg>