<?xml version="1.0" encoding="UTF-8"?>
<svg xmlns="http://www.w3.org/2000/svg" xmlns:xlink="http://www.w3.org/1999/xlink" width="98px" height="50px" viewBox="0 0 98 50" version="1.1">
<g id="surface1">
<path style=" stroke:none;fill-rule:nonzero;fill:rgb(0%,0%,0%);fill-opacity:1;" d="M 10.316406 2.269531 C 10.28125 2.375 9.148438 7.332031 9.148438 7.382812 C 9.148438 7.429688 10.054688 7.4375 15.515625 7.449219 C 22.453125 7.464844 22.070312 7.453125 23.351562 7.6875 C 26.929688 8.34375 28.921875 10.273438 28.773438 12.949219 C 28.667969 14.792969 27.757812 16.59375 26.296875 17.851562 C 24.445312 19.429688 21.828125 20.351562 18.484375 20.589844 C 17.777344 20.640625 15.160156 20.644531 15.160156 20.59375 C 15.160156 20.574219 15.738281 18.039062 16.441406 14.957031 C 17.148438 11.878906 17.726562 9.347656 17.726562 9.335938 C 17.726562 9.324219 15.691406 9.320312 13.207031 9.320312 L 8.695312 9.320312 L 8.65625 9.460938 C 8.605469 9.648438 4.859375 25.839844 4.859375 25.867188 C 4.859375 25.875 8.125 25.878906 12.109375 25.871094 C 19.828125 25.855469 19.59375 25.863281 21.09375 25.671875 C 25.539062 25.101562 29.757812 23.476562 32.902344 21.132812 C 34.238281 20.132812 35.363281 19.023438 36.234375 17.851562 C 37.148438 16.617188 37.851562 15.140625 38.089844 13.960938 C 38.414062 12.335938 38.210938 9.746094 37.632812 8.0625 C 37.46875 7.585938 37.445312 7.4375 37.53125 7.367188 C 37.625 7.289062 37.730469 7.390625 37.855469 7.667969 C 37.917969 7.804688 38.210938 8.617188 38.503906 9.46875 C 39.882812 13.484375 46.023438 31.203125 46.070312 31.304688 C 46.113281 31.414062 46.117188 31.40625 56.457031 19.46875 C 62.148438 12.894531 66.824219 7.503906 66.851562 7.488281 C 66.929688 7.4375 78.441406 7.421875 79.125 7.476562 C 82.898438 7.757812 85.421875 9.195312 86.070312 11.429688 C 86.21875 11.929688 86.257812 12.332031 86.234375 12.898438 C 86.167969 14.574219 85.4375 16.195312 84.179688 17.445312 C 82.367188 19.257812 79.539062 20.328125 75.90625 20.589844 C 75.59375 20.609375 74.710938 20.628906 73.9375 20.628906 L 72.535156 20.628906 L 72.5625 20.5 C 72.578125 20.4375 73.164062 17.90625 73.867188 14.882812 C 74.570312 11.855469 75.148438 9.367188 75.148438 9.347656 C 75.148438 9.332031 73.113281 9.320312 70.632812 9.320312 L 66.117188 9.320312 L 66.09375 9.421875 C 66.078125 9.484375 65.222656 13.167969 64.195312 17.617188 C 63.164062 22.066406 62.3125 25.75 62.304688 25.792969 L 62.28125 25.882812 L 69.105469 25.882812 C 73.226562 25.882812 76.1875 25.867188 76.582031 25.84375 C 80.390625 25.617188 83.929688 24.695312 87.128906 23.097656 C 91.554688 20.882812 94.515625 17.730469 95.398438 14.28125 C 95.601562 13.492188 95.667969 12.957031 95.667969 12.171875 C 95.667969 10.601562 95.257812 9.234375 94.382812 7.917969 C 92.25 4.703125 87.789062 2.632812 82.210938 2.261719 C 81.851562 2.242188 77.78125 2.226562 71.546875 2.226562 L 61.457031 2.226562 L 60.023438 3.957031 C 57.15625 7.421875 55.625 9.289062 54.609375 10.5625 C 51.96875 13.882812 50.203125 16.25 49.566406 17.359375 L 49.46875 17.527344 L 49.421875 17.210938 C 49.320312 16.546875 48.875 14.890625 48.351562 13.175781 C 48.222656 12.773438 47.359375 10.140625 46.429688 7.335938 L 44.734375 2.226562 L 27.53125 2.226562 C 13.808594 2.226562 10.332031 2.234375 10.316406 2.269531 Z M 10.316406 2.269531 "/>
<path style=" stroke:none;fill-rule:nonzero;fill:rgb(0%,0%,0%);fill-opacity:1;" d="M 42.609375 31.46875 C 42.195312 31.472656 40.972656 31.496094 39.890625 31.515625 C 20.695312 31.921875 5.4375 34.148438 2.765625 36.9375 C 1.21875 38.554688 3.734375 40.140625 9.949219 41.46875 C 14.394531 42.414062 20.664062 43.1875 27.867188 43.671875 C 30.484375 43.84375 31.820312 43.914062 35.734375 44.078125 C 39.359375 44.226562 47.789062 44.296875 51.984375 44.214844 C 67.179688 43.914062 79.777344 42.585938 86.300781 40.605469 C 88.5625 39.921875 90.007812 39.121094 90.40625 38.34375 C 90.558594 38.039062 90.558594 37.683594 90.40625 37.375 C 88.992188 34.492188 74.328125 32.105469 54.648438 31.554688 C 51.164062 31.460938 46.363281 31.425781 42.609375 31.46875 Z M 47.46875 35.929688 C 51.609375 36.203125 54.378906 36.910156 54.796875 37.789062 C 54.902344 38.007812 54.851562 38.164062 54.597656 38.421875 C 53.28125 39.726562 46.691406 40.457031 40.882812 39.929688 C 37.25 39.605469 34.796875 38.820312 34.796875 37.976562 C 34.796875 36.976562 38.164062 36.109375 42.914062 35.890625 C 43.8125 35.851562 46.640625 35.875 47.46875 35.929688 Z M 47.46875 35.929688 "/>
</g>
</svg>
