<?xml version="1.0" standalone="no"?>
<!DOCTYPE svg PUBLIC "-//W3C//DTD SVG 20010904//EN"
 "http://www.w3.org/TR/2001/REC-SVG-20010904/DTD/svg10.dtd">
<svg version="1.0" xmlns="http://www.w3.org/2000/svg"
 width="2560.000000pt" height="1304.000000pt" viewBox="0 0 2560.000000 1304.000000"
 preserveAspectRatio="xMidYMid meet">
<g transform="translate(0.000000,1304.000000) scale(0.100000,-0.100000)"
fill="#000000" stroke="none">
<path d="M2695 12448 c-9 -28 -305 -1320 -305 -1333 0 -12 237 -15 1663 -18
1813 -4 1713 -1 2047 -62 934 -171 1455 -675 1416 -1372 -27 -481 -265 -951
-647 -1278 -484 -413 -1167 -652 -2041 -715 -184 -13 -868 -14 -868 -1 0 5
151 667 335 1470 184 803 335 1463 335 1466 0 3 -531 5 -1180 5 l-1179 0 -10
-37 c-13 -49 -991 -4272 -991 -4279 0 -2 852 -3 1893 -1 2016 4 1956 2 2347
52 1161 149 2264 572 3085 1184 349 261 643 549 870 855 239 323 423 707 485
1015 84 424 32 1099 -120 1539 -43 123 -48 163 -26 181 24 20 52 -7 85 -79 16
-36 92 -247 169 -470 361 -1046 1965 -5668 1976 -5694 12 -29 13 -27 2714
3087 1486 1714 2708 3120 2715 3124 20 13 3028 17 3207 3 985 -73 1644 -448
1814 -1031 38 -131 49 -235 43 -383 -18 -437 -209 -859 -537 -1186 -473 -472
-1212 -752 -2162 -820 -81 -5 -312 -10 -513 -10 l-367 0 7 33 c4 17 158 677
341 1466 184 789 334 1438 334 1443 0 4 -531 8 -1179 8 l-1179 0 -7 -27 c-4
-16 -227 -977 -496 -2138 -269 -1160 -491 -2120 -494 -2132 l-5 -23 1782 0
c1076 0 1850 4 1953 10 995 59 1920 300 2755 716 1157 578 1930 1400 2160
2299 53 206 71 346 71 551 0 409 -108 765 -336 1109 -557 838 -1723 1379
-3180 1475 -93 6 -1156 10 -2785 10 l-2636 0 -374 -452 c-749 -903 -1149
-1390 -1415 -1723 -690 -865 -1150 -1483 -1317 -1773 l-25 -43 -13 83 c-26
172 -142 605 -280 1052 -33 105 -259 791 -502 1523 l-443 1333 -4493 0 c-3585
0 -4493 -3 -4497 -12z"/>
<path d="M11130 4833 c-107 -1 -427 -7 -710 -13 -5014 -105 -9000 -686 -9698
-1413 -404 -422 253 -835 1877 -1182 1161 -247 2799 -448 4681 -575 684 -45
1032 -63 2055 -105 947 -39 3149 -58 4245 -36 3969 78 7260 424 8964 941 591
179 968 387 1072 590 40 79 40 172 1 252 -370 753 -4200 1375 -9342 1518 -910
25 -2164 34 -3145 23z m1270 -1163 c1082 -72 1805 -256 1915 -486 27 -57 14
-97 -53 -164 -343 -341 -2065 -531 -3582 -394 -950 85 -1590 290 -1590 509 0
262 879 488 2120 545 235 10 974 4 1190 -10z"/>
</g>
</svg>
