<?xml version="1.0" standalone="no"?>
<!DOCTYPE svg PUBLIC "-//W3C//DTD SVG 20010904//EN"
 "http://www.w3.org/TR/2001/REC-SVG-20010904/DTD/svg10.dtd">
<svg version="1.0" xmlns="http://www.w3.org/2000/svg"
 width="300.000000pt" height="153.000000pt" viewBox="0 0 300.000000 153.000000"
 preserveAspectRatio="xMidYMid meet">
<g transform="translate(0.000000,153.000000) scale(0.100000,-0.100000)"
fill="#000000" stroke="none">
<path d="M302 1403 c-7 -32 -15 -68 -18 -80 l-6 -23 214 0 c254 0 296 -8 352
-70 31 -34 36 -47 36 -87 0 -140 -121 -230 -324 -241 -89 -4 -99 -3 -93 12 7
17 77 314 77 325 0 3 -62 5 -137 4 l-137 -2 -53 -228 c-29 -125 -55 -239 -58
-251 l-6 -24 268 5 c295 4 335 10 468 72 236 109 333 287 260 478 -4 9 -3 17
3 17 6 0 16 -17 22 -37 44 -137 234 -680 240 -686 4 -5 149 154 321 353 l314
361 230 -3 c213 -3 233 -5 270 -25 60 -32 87 -65 92 -116 7 -62 -12 -113 -62
-162 -58 -59 -135 -86 -257 -93 -54 -2 -98 -2 -98 1 0 3 18 81 40 173 22 92
39 167 38 168 -2 1 -64 0 -139 -2 l-136 -3 -53 -232 c-29 -128 -55 -240 -58
-249 -4 -17 12 -18 230 -18 249 0 308 6 429 46 146 48 274 147 327 254 53 108
29 230 -59 305 -50 41 -137 81 -219 99 -63 14 -128 16 -409 14 l-334 -3 -124
-150 c-68 -82 -150 -187 -182 -232 l-59 -83 -7 38 c-3 20 -36 126 -71 235
l-65 197 -528 0 -527 0 -12 -57z m1036 5 c5 -7 39 -103 75 -212 36 -109 72
-205 80 -213 26 -26 55 -5 134 99 42 56 120 154 175 220 l98 118 318 0 c241 0
334 -4 387 -15 313 -66 378 -314 128 -492 -144 -103 -274 -133 -569 -133 -106
0 -195 3 -198 8 -4 7 74 363 88 398 4 11 27 14 96 14 106 0 102 11 65 -144
-44 -188 -37 -201 112 -194 159 9 258 60 320 166 40 68 39 152 -1 210 -37 54
-108 88 -211 103 -104 15 -381 3 -412 -17 -12 -7 -140 -150 -284 -316 -293
-339 -306 -354 -313 -347 -3 3 -51 135 -106 294 -56 158 -109 304 -118 323
-22 46 -45 60 -66 43 -14 -12 -15 -28 -10 -107 7 -91 6 -95 -25 -158 -40 -82
-109 -144 -216 -196 -134 -65 -172 -72 -437 -77 l-238 -5 0 24 c0 25 72 346
85 381 6 14 21 17 96 17 106 0 102 11 62 -163 -25 -109 -26 -121 -12 -145 15
-27 16 -27 120 -26 127 1 194 24 267 89 94 84 117 197 58 286 -53 79 -164 108
-408 109 -137 0 -138 0 -138 23 0 13 5 28 12 35 18 18 971 17 986 0z"/>
<path d="M1150 563 c-492 -15 -937 -78 -1042 -148 -43 -29 -47 -46 -16 -75 62
-57 289 -104 698 -142 216 -21 1098 -17 1320 5 417 41 649 99 658 163 18 125
-789 223 -1618 197z m670 -48 c324 -14 605 -47 770 -91 142 -37 153 -58 47
-93 -117 -38 -301 -67 -597 -93 -193 -17 -1054 -17 -1240 0 -383 35 -670 92
-670 131 0 16 49 38 136 60 303 76 964 113 1554 86z"/>
<path d="M1265 469 c-114 -9 -166 -23 -205 -55 -36 -31 -38 -53 -6 -87 43 -46
120 -62 311 -62 191 0 269 13 315 52 75 62 4 132 -150 147 -110 11 -177 12
-265 5z m300 -50 c172 -32 144 -85 -57 -110 -186 -23 -448 13 -448 61 0 15 36
30 103 45 76 16 322 19 402 4z"/>
</g>
</svg>
